<svg xmlns="http://www.w3.org/2000/svg" xmlns:xlink="http://www.w3.org/1999/xlink"
	 width="3840px" height="2400px" viewBox="0 0 3840 2400">
		<path d="M3784.619,1807.71c-1168.199,0-2926.656-17.513-3027.903-15.74
			c-161.998,327.766-506.243,520.876-647.988,448.241c-235.404-120.476,18.983-403.948,334.118-465.96
			c65.813-14.171,188.574-26.575,268.308-28.341c62.015-147.047,101.248-271.071,127.825-435.837l5.063-30.118
			c-75.937,100.987-315.136,347.249-523.96,249.802c-158.2-76.178-258.183-418.109-121.499-820.285
			c-97.449-141.732-121.497-347.249-5.064-513.788c17.722-26.576,36.706-23.03,16.457,14.173
			c-83.531,147.051-68.345,317.132,8.859,446.465c7.592-23.031,17.719-46.061,27.844-69.095
			C380.833,280.725,636.484,107.101,840.246,151.39c391.074,85.044,305.008,735.251-230.341,745.882
			c-122.764,3.546-251.854-46.064-332.853-122.247c-111.375,336.623-62.015,628.953,86.059,696.274
			c167.062,76.18,397.402-111.615,432.836-230.317c73.408-240.953,159.467-170.084,150.609-79.73
			c-17.717,196.658-79.736,372.055-172.123,584.659c112.639,1.766,1742.346,29.899,3020.314,29.899
			C3833.49,1775.81,3835.289,1807.71,3784.619,1807.71z M458.033,1822.094c-224.012,47.83-502.444,317.126-316.402,372.052
			c112.641,35.438,401.199-102.757,549.273-400.398C611.172,1797.289,528.906,1806.146,458.033,1822.094z M332.738,631.519
			c-13.922,31.891-27.842,65.553-39.235,97.443c78.467,83.268,207.562,131.103,336.654,113.386
			c426.508-60.236,526.49-572.252,216.415-637.805C674.45,169.108,451.707,358.679,332.738,631.519z"/>
		<path d="M1582,1326.218c0-44.335-5.671-83.489-12.875-117.358c-7.19-33.869-18.716-62.428-32.105-85.71
			c-13.986-24.283-30.036-39.963-47.323-54.924c-17.3-14.953-36.817-25.225-58.312-31.225h0.015
			c-22.027-16-48.61-16.453-79.688-20.508c-31.076-4.061-66.609-7.492-106.422-7.492H1089v659h177.591
			c54.799,0,99.521-8.891,133.858-17.807c15.464-4.02,30.2-11.148,44.485-19.538c14.279-8.384,28.096-17.655,41.51-32.655h-0.004
			c25.432-23,49.836-60.002,67.401-107.387c17.244-46.348,28.158-101.296,28.158-163.902v-0.044v-0.012V1326.218z M1488,1320.462
			c0,69.493-6.492,123.583-22.231,165.688l0.054,0.021l0.016,0.029c-7.524,19.829-16.538,38.419-27.75,54.818
			c-11.215,16.378-24.667,30.649-41.23,41.247l-0.048,0.029l-0.031,1.288c-31.261,19.75-71.622,32.416-118.672,32.416H1171v-555
			h107.107c21.298,0,41.272-0.947,60.021,2.196c18.728,3.142,36.306,7.384,52.2,15.862l0.055-0.479l0.04-0.235
			c16.453,8.89,30.549,20.97,42.47,35.336c11.938,14.377,21.782,32.32,30.193,50.32h0.01l0.015-0.236
			c8.902,20.347,15.011,43.257,19.058,69.286c4.042,26.031,5.832,54.943,5.832,87.379V1320.462z"/>
		<rect x="1627" y="1009" width="78" height="659"/>
		<path d="M1940.551,1065.761l-0.033-0.522c22.349-12.498,64.242-19.239,90.75-19.239h0.286h0.141h0.065
			c21.76,0,43.037,4.66,62.174,13.52c-0.008-0.003-0.008,0.266-0.014,0.266l0.029,0.149c-0.004-0.003-0.074,0.063-0.08,0.063
			c19.207,8.856,37.131,22.117,48.131,38.157v0.016l0.09,0.039c10.816,13.654,19.421,29.216,26.146,46.486
			c4.922,12.614,8.858,26.177,11.999,40.647l80.18-11.834c-5.564-27.512-13.445-51.527-23.432-72.118
			c-11.885-24.513-26.636-44.236-43.954-59.846l0.021,0.011c-18.924-16.988-41.206-29.786-68.286-38.577
			c-27.063-8.772-59.017-13.453-96.734-13.523c-46.918,0.023-85.892,7.87-118.702,22.554
			c-32.827,14.787-59.989,36.344-83.163,66.914c-23.442,31.003-41.56,70.197-53.839,114.333
			c-12.279,44.121-18.802,96.746-18.799,154.746H1755v-3.685v0.05c0,52.811,5.742,99.225,18.044,139.536
			c12.311,40.323,30.108,74.529,53.722,103.296c23.721,28.836,50.085,49.17,80.433,62.886
			c30.366,13.628,64.812,20.736,105.545,20.772c38.059-0.036,68.822-6.808,94.748-19.372c25.916-12.678,47.499-31.223,66.149-58.288
			l0.124-0.2l52.62-69.36L2262,1648.879V1348h-199v51h123.928l-0.154,34.58c-0.098,19.682-1.514,38.555-4.521,55.203
			c-3.004,16.65-7.611,35.217-14.059,47.217h0.021c-6.514,18-15.293,27.393-26.281,38.576
			c-10.973,11.178-24.174,20.051-39.189,26.699c0.012-0.006,0.021-0.275,0.033-0.275h-0.068c0.014,0-0.426,1.875-0.41,1.869
			c-20.143,8.986-41.299,14.514-65.299,14.514V1616h0.7h-0.083h-0.083h-0.018h-0.009h-0.228c-28.435,0-71.802-7.27-95.484-19.732
			l0.03-0.365c-23.911-12.5-43.164-26.902-57.641-53.902h-0.027l-0.027-0.234c-14.934-23.346-24.174-51.836-30.534-85.537
			c-6.338-33.731-8.597-72.972-8.597-118.204v-0.042c0-50.688,2.356-93.863,8.795-130.148l-0.319-0.032
			c3.259-18.105,7.151-34.574,12.377-49.551c5.232-14.968,11.56-28.466,19.608-40.482l-0.072,0.046l0.03-0.076
			C1899.91,1096.202,1918.125,1078.22,1940.551,1065.761z"/>
		<rect x="2325" y="1009" width="82" height="659"/>
		<polygon points="2891,1009 2468,1009 2468,1076 2633,1076 2633,1668 2715,1668 2715,1076 2891,1076 		"/>
		<polygon points="3061.553,1009 3186.107,1463 2974.617,1463 2923.543,1463 3043.023,1009 3010.348,1009
			2792.014,1668 2868.914,1668 2908.525,1514 3199.711,1514 3239.998,1668 3336.219,1668 3128.535,1009 		"/>
		<polygon points="3477,1009 3395,1009 3395,1668 3747,1668 3747,1601 3477,1601 		"/>
</svg>
