<?xml version="1.0" encoding="utf-8"?>
<!-- Generator: Adobe Illustrator 16.0.0, SVG Export Plug-In . SVG Version: 6.00 Build 0)  -->
<!DOCTYPE svg PUBLIC "-//W3C//DTD SVG 1.1//EN" "http://www.w3.org/Graphics/SVG/1.1/DTD/svg11.dtd">
<svg version="1.1" id="Layer_1" xmlns="http://www.w3.org/2000/svg" xmlns:xlink="http://www.w3.org/1999/xlink" x="0px" y="0px"
	 width="442px" height="500px" viewBox="0 0 442 500" enable-background="new 0 0 442 500" xml:space="preserve">
<g>
	<circle opacity="0.2"  cx="9.939" cy="10.456" r="5.006"/>
	<circle opacity="0.2"  cx="9.939" cy="35.485" r="5.006"/>
	<circle opacity="0.2"  cx="9.939" cy="60.515" r="5.006"/>
	<circle opacity="0.2"  cx="9.939" cy="85.545" r="5.006"/>
	<circle opacity="0.2"  cx="9.939" cy="110.576" r="5.006"/>
	<circle opacity="0.2"  cx="34.97" cy="10.456" r="3.754"/>
	<circle opacity="0.2"  cx="34.97" cy="35.485" r="3.754"/>
	<circle opacity="0.2"  cx="34.97" cy="60.515" r="3.754"/>
	<circle opacity="0.2"  cx="34.97" cy="85.545" r="3.754"/>
	<circle opacity="0.2"  cx="34.97" cy="110.576" r="3.754"/>
	<circle opacity="0.2"  cx="60" cy="10.456" r="3.755"/>
	<circle opacity="0.2"  cx="60" cy="35.485" r="2.503"/>
	<circle opacity="0.2"  cx="60" cy="60.515" r="2.503"/>
	<circle opacity="0.2"  cx="60" cy="85.545" r="2.503"/>
	<circle opacity="0.2"  cx="60" cy="110.576" r="2.503"/>
	<circle opacity="0.2"  cx="85.03" cy="10.456" r="3.754"/>
	<circle opacity="0.2"  cx="85.03" cy="35.485" r="2.503"/>
	<circle opacity="0.2"  cx="85.03" cy="60.515" r="1.251"/>
	<circle opacity="0.2"  cx="85.03" cy="85.545" r="1.251"/>
	<circle opacity="0.2"  cx="85.03" cy="110.576" r="1.251"/>
	<circle opacity="0.2"  cx="9.939" cy="135.606" r="5.006"/>
	<circle opacity="0.2"  cx="34.97" cy="135.606" r="3.754"/>
	<circle opacity="0.2"  cx="9.939" cy="160.635" r="5.006"/>
	<circle opacity="0.2"  cx="34.97" cy="160.635" r="3.754"/>
	<circle opacity="0.2"  cx="60" cy="135.606" r="2.503"/>
	<circle opacity="0.2"  cx="85.03" cy="135.606" r="1.251"/>
	<circle opacity="0.2"  cx="110.06" cy="10.456" r="3.754"/>
	<circle opacity="0.2"  cx="110.061" cy="35.485" r="2.503"/>
	<circle opacity="0.2"  cx="110.06" cy="60.515" r="1.251"/>
	<circle opacity="0.2"  cx="110.061" cy="85.545" r="0.626"/>
	<circle opacity="0.2"  cx="110.061" cy="110.576" r="0.626"/>
	<circle opacity="0.2"  cx="135.09" cy="10.456" r="3.754"/>
	<circle opacity="0.2"  cx="135.09" cy="35.485" r="2.503"/>
	<circle opacity="0.2"  cx="135.09" cy="60.515" r="1.251"/>
	<circle opacity="0.2"  cx="135.09" cy="85.545" r="0.625"/>
	<circle opacity="0.2"  cx="160.121" cy="10.456" r="3.754"/>
	<circle opacity="0.2"  cx="160.12" cy="35.485" r="2.503"/>
	<circle opacity="0.2"  cx="160.121" cy="60.515" r="1.251"/>
	<circle opacity="0.2"  cx="185.151" cy="10.456" r="3.754"/>
	<circle opacity="0.2"  cx="432.061" cy="489.545" r="5.006"/>
	<circle opacity="0.2"  cx="432.061" cy="464.514" r="5.006"/>
	<circle opacity="0.2"  cx="432.061" cy="439.484" r="5.006"/>
	<circle opacity="0.2"  cx="432.061" cy="414.455" r="5.006"/>
	<circle opacity="0.2"  cx="432.061" cy="389.424" r="5.006"/>
	<circle opacity="0.2"  cx="432.061" cy="364.395" r="5.006"/>
	<circle opacity="0.2"  cx="407.03" cy="489.545" r="5.006"/>
	<circle opacity="0.2"  cx="407.03" cy="464.514" r="3.754"/>
	<circle opacity="0.2"  cx="407.03" cy="439.484" r="3.754"/>
	<circle opacity="0.2"  cx="407.03" cy="414.455" r="3.754"/>
	<circle opacity="0.2"  cx="407.03" cy="389.424" r="3.754"/>
	<circle opacity="0.2"  cx="407.03" cy="364.395" r="3.754"/>
	<circle opacity="0.2"  cx="382" cy="489.545" r="5.006"/>
	<circle opacity="0.2"  cx="382" cy="464.514" r="3.755"/>
	<circle opacity="0.2"  cx="382" cy="439.484" r="2.503"/>
	<circle opacity="0.2"  cx="382" cy="414.455" r="2.503"/>
	<circle opacity="0.2"  cx="382" cy="389.424" r="2.503"/>
	<circle opacity="0.2"  cx="382" cy="364.395" r="2.503"/>
	<circle opacity="0.2"  cx="356.97" cy="489.545" r="5.006"/>
	<circle opacity="0.2"  cx="356.97" cy="464.514" r="3.754"/>
	<circle opacity="0.2"  cx="356.97" cy="439.484" r="2.503"/>
	<circle opacity="0.2"  cx="356.97" cy="414.455" r="1.251"/>
	<circle opacity="0.2"  cx="356.97" cy="389.424" r="1.251"/>
	<circle opacity="0.2"  cx="356.97" cy="364.395" r="1.251"/>
	<circle opacity="0.2"  cx="432.061" cy="339.363" r="5.006"/>
	<circle opacity="0.2"  cx="407.03" cy="339.363" r="3.754"/>
	<circle opacity="0.2"  cx="432.061" cy="314.334" r="5.006"/>
	<circle opacity="0.2"  cx="407.03" cy="314.334" r="3.754"/>
	<circle opacity="0.2"  cx="382" cy="339.363" r="2.503"/>
	<circle opacity="0.2"  cx="356.97" cy="339.363" r="1.251"/>
	<circle opacity="0.2"  cx="331.939" cy="489.545" r="5.006"/>
	<circle opacity="0.2"  cx="331.94" cy="464.514" r="3.754"/>
	<circle opacity="0.2"  cx="331.939" cy="439.484" r="2.503"/>
	<circle opacity="0.2"  cx="331.94" cy="414.455" r="1.251"/>
	<circle opacity="0.2"  cx="331.939" cy="389.424" r="0.626"/>
	<circle opacity="0.2"  cx="331.939" cy="364.395" r="0.626"/>
	<circle opacity="0.2"  cx="306.91" cy="489.545" r="5.006"/>
	<circle opacity="0.2"  cx="306.91" cy="464.514" r="3.754"/>
	<circle opacity="0.2"  cx="306.91" cy="439.484" r="2.503"/>
	<circle opacity="0.2"  cx="306.91" cy="414.455" r="1.251"/>
	<circle opacity="0.2"  cx="306.91" cy="389.424" r="0.625"/>
	<circle opacity="0.2"  cx="281.879" cy="489.545" r="5.006"/>
	<circle opacity="0.2"  cx="281.879" cy="464.514" r="3.754"/>
	<circle opacity="0.2"  cx="281.88" cy="439.484" r="2.503"/>
	<circle opacity="0.2"  cx="281.879" cy="414.455" r="1.251"/>
	<circle opacity="0.2"  cx="256.849" cy="489.545" r="5.006"/>
	<circle opacity="0.2"  cx="256.849" cy="464.514" r="3.754"/>
</g>
</svg>
