<?xml version="1.0" encoding="utf-8"?>
<!-- Generator: Adobe Illustrator 16.0.0, SVG Export Plug-In . SVG Version: 6.00 Build 0)  -->
<!DOCTYPE svg PUBLIC "-//W3C//DTD SVG 1.1//EN" "http://www.w3.org/Graphics/SVG/1.1/DTD/svg11.dtd">
<svg version="1.1" id="Layer_1" xmlns="http://www.w3.org/2000/svg" xmlns:xlink="http://www.w3.org/1999/xlink" x="0px" y="0px"
	 width="442px" height="500px" viewBox="0 0 442 500" enable-background="new 0 0 442 500" xml:space="preserve">
<g>
	<circle  cx="392.616" cy="86.712" r="14.918"/>
	<circle  cx="425.768" cy="86.712" r="16.576"/>
	<circle  cx="458.919" cy="86.712" r="14.918"/>
	<circle  cx="492.072" cy="86.712" r="13.261"/>
	<circle  cx="525.224" cy="86.712" r="11.603"/>
	<circle  cx="558.376" cy="86.712" r="9.946"/>
	<circle  cx="591.528" cy="86.712" r="8.288"/>
	<circle  cx="574.952" cy="58.014" r="8.288"/>
	<circle  cx="541.8" cy="58.014" r="9.946"/>
	<circle  cx="508.648" cy="58.014" r="11.603"/>
	<circle  cx="475.496" cy="58.014" r="13.26"/>
	<circle  cx="442.343" cy="58.014" r="14.918"/>
	<circle  cx="409.192" cy="58.014" r="14.918"/>
	<circle  cx="574.952" cy="115.411" r="8.288"/>
	<circle  cx="541.8" cy="115.411" r="9.946"/>
	<circle  cx="508.648" cy="115.411" r="11.603"/>
	<circle  cx="475.496" cy="115.411" r="13.26"/>
	<circle  cx="442.343" cy="115.411" r="14.918"/>
	<circle  cx="409.192" cy="115.411" r="14.918"/>
	<circle  cx="425.768" cy="29.81" r="13.261"/>
	<circle  cx="458.919" cy="29.81" r="13.261"/>
	<circle  cx="492.072" cy="29.81" r="11.603"/>
	<circle  cx="525.224" cy="29.81" r="9.946"/>
	<circle  cx="558.376" cy="29.81" r="8.288"/>
	<circle  cx="425.768" cy="144.11" r="13.261"/>
	<circle  cx="458.919" cy="144.11" r="13.261"/>
	<circle  cx="492.072" cy="144.11" r="11.603"/>
	<circle  cx="525.224" cy="144.11" r="9.946"/>
	<circle  cx="558.376" cy="144.11" r="8.288"/>
	<circle  cx="541.8" cy="1.605" r="8.288"/>
	<circle  cx="508.648" cy="1.605" r="9.946"/>
	<circle  cx="475.496" cy="1.605" r="11.603"/>
	<circle  cx="442.343" cy="1.605" r="11.603"/>
	<circle  cx="541.8" cy="172.066" r="8.288"/>
	<circle  cx="508.648" cy="172.066" r="9.946"/>
	<circle  cx="475.496" cy="172.066" r="11.603"/>
	<circle  cx="442.343" cy="172.066" r="11.603"/>
	<circle  cx="359.463" cy="86.712" r="13.261"/>
	<circle  cx="376.039" cy="58.014" r="13.261"/>
	<circle  cx="376.039" cy="115.411" r="13.261"/>
	<circle  cx="392.615" cy="29.81" r="13.261"/>
	<circle  cx="392.615" cy="144.11" r="13.261"/>
	<circle  cx="409.191" cy="1.605" r="11.604"/>
	<circle  cx="409.191" cy="172.066" r="11.604"/>
	<circle  cx="326.311" cy="86.712" r="11.603"/>
	<circle  cx="342.887" cy="58.014" r="11.603"/>
	<circle  cx="342.887" cy="115.411" r="11.603"/>
	<circle  cx="359.463" cy="29.81" r="11.604"/>
	<circle  cx="359.463" cy="144.11" r="11.604"/>
	<circle  cx="425.767" cy="200.642" r="9.946"/>
	<circle  cx="458.919" cy="200.642" r="9.946"/>
	<circle  cx="492.072" cy="200.642" r="9.946"/>
	<circle  cx="525.224" cy="200.642" r="8.288"/>
	<circle  cx="392.616" cy="200.642" r="9.946"/>
	<circle  cx="359.463" cy="200.642" r="9.946"/>
	<circle  cx="425.767" cy="-26.475" r="9.946"/>
	<circle  cx="458.919" cy="-26.475" r="9.946"/>
	<circle  cx="492.072" cy="-26.475" r="9.946"/>
	<circle  cx="525.224" cy="-26.475" r="8.288"/>
	<circle  cx="392.616" cy="-26.475" r="9.946"/>
	<circle  cx="359.463" cy="-26.475" r="9.946"/>
	<circle  cx="376.04" cy="1.605" r="11.603"/>
	<circle  cx="508.648" cy="-55.297" r="8.288"/>
	<circle  cx="475.496" cy="-55.297" r="8.288"/>
	<circle  cx="442.344" cy="-55.297" r="8.288"/>
	<circle  cx="409.191" cy="-55.297" r="8.288"/>
	<circle  cx="376.039" cy="-55.297" r="8.288"/>
	<circle  cx="508.648" cy="229.712" r="8.288"/>
	<circle  cx="475.496" cy="229.712" r="8.288"/>
	<circle  cx="442.344" cy="229.712" r="8.288"/>
	<circle  cx="409.191" cy="229.712" r="8.288"/>
	<circle  cx="376.039" cy="229.712" r="8.288"/>
	<circle  cx="376.04" cy="172.066" r="11.603"/>
	<circle  cx="293.159" cy="86.712" r="9.946"/>
	<circle  cx="309.735" cy="58.014" r="9.946"/>
	<circle  cx="309.735" cy="115.411" r="9.946"/>
	<circle  cx="326.311" cy="29.81" r="9.946"/>
	<circle  cx="326.311" cy="144.11" r="9.946"/>
	<circle  cx="342.887" cy="1.605" r="9.946"/>
	<circle  cx="342.887" cy="172.066" r="9.946"/>
	<circle  cx="326.312" cy="200.642" r="8.288"/>
	<circle  cx="326.312" cy="-26.475" r="8.288"/>
	<circle  cx="342.887" cy="-55.297" r="8.288"/>
	<circle  cx="342.887" cy="229.712" r="8.288"/>
	<circle  cx="260.007" cy="86.712" r="8.288"/>
	<circle  cx="276.583" cy="58.014" r="8.288"/>
	<circle  cx="276.583" cy="115.411" r="8.288"/>
	<circle  cx="293.159" cy="29.81" r="8.288"/>
	<circle  cx="293.159" cy="144.11" r="8.288"/>
	<circle  cx="309.735" cy="1.605" r="8.288"/>
	<circle  cx="309.735" cy="172.066" r="8.288"/>
</g>
<g>
	<circle  cx="-16.384" cy="556.713" r="14.918"/>
	<circle  cx="16.768" cy="556.713" r="16.576"/>
	<circle  cx="49.919" cy="556.713" r="14.918"/>
	<circle  cx="83.072" cy="556.713" r="13.261"/>
	<circle  cx="116.224" cy="556.713" r="11.603"/>
	<circle  cx="149.376" cy="556.713" r="9.946"/>
	<circle  cx="182.528" cy="556.713" r="8.288"/>
	<circle  cx="165.952" cy="528.014" r="8.288"/>
	<circle  cx="132.8" cy="528.014" r="9.946"/>
	<circle  cx="99.648" cy="528.014" r="11.603"/>
	<circle  cx="66.496" cy="528.014" r="13.26"/>
	<circle  cx="33.343" cy="528.014" r="14.918"/>
	<circle  cx="0.192" cy="528.014" r="14.918"/>
	<circle  cx="165.952" cy="585.411" r="8.288"/>
	<circle  cx="132.8" cy="585.411" r="9.946"/>
	<circle  cx="99.648" cy="585.411" r="11.603"/>
	<circle  cx="66.496" cy="585.411" r="13.26"/>
	<circle  cx="33.343" cy="585.411" r="14.918"/>
	<circle  cx="0.192" cy="585.411" r="14.918"/>
	<circle  cx="16.768" cy="499.81" r="13.261"/>
	<circle  cx="49.919" cy="499.81" r="13.261"/>
	<circle  cx="83.072" cy="499.81" r="11.603"/>
	<circle  cx="116.224" cy="499.81" r="9.946"/>
	<circle  cx="149.376" cy="499.81" r="8.288"/>
	<circle  cx="16.768" cy="614.11" r="13.261"/>
	<circle  cx="49.919" cy="614.11" r="13.261"/>
	<circle  cx="83.072" cy="614.11" r="11.603"/>
	<circle  cx="116.224" cy="614.11" r="9.946"/>
	<circle  cx="149.376" cy="614.11" r="8.288"/>
	<circle  cx="132.8" cy="471.605" r="8.288"/>
	<circle  cx="99.648" cy="471.605" r="9.946"/>
	<circle  cx="66.496" cy="471.605" r="11.603"/>
	<circle  cx="33.343" cy="471.605" r="11.603"/>
	<circle  cx="132.8" cy="642.066" r="8.288"/>
	<circle  cx="99.648" cy="642.066" r="9.946"/>
	<circle  cx="66.496" cy="642.066" r="11.603"/>
	<circle  cx="33.343" cy="642.066" r="11.603"/>
	<circle  cx="-49.537" cy="556.713" r="13.261"/>
	<circle  cx="-32.961" cy="528.014" r="13.261"/>
	<circle  cx="-32.961" cy="585.411" r="13.261"/>
	<circle  cx="-16.385" cy="499.81" r="13.261"/>
	<circle  cx="-16.385" cy="614.11" r="13.261"/>
	<circle  cx="0.191" cy="471.605" r="11.604"/>
	<circle  cx="0.191" cy="642.066" r="11.604"/>
	<circle  cx="-82.689" cy="556.713" r="11.603"/>
	<circle  cx="-66.113" cy="528.014" r="11.603"/>
	<circle  cx="-66.113" cy="585.411" r="11.603"/>
	<circle  cx="-49.537" cy="499.81" r="11.604"/>
	<circle  cx="-49.537" cy="614.11" r="11.604"/>
	<circle  cx="16.767" cy="670.642" r="9.946"/>
	<circle  cx="49.919" cy="670.642" r="9.946"/>
	<circle  cx="83.072" cy="670.642" r="9.946"/>
	<circle  cx="116.224" cy="670.642" r="8.288"/>
	<circle  cx="-16.384" cy="670.642" r="9.946"/>
	<circle  cx="-49.537" cy="670.642" r="9.946"/>
	<circle  cx="16.767" cy="443.525" r="9.946"/>
	<circle  cx="49.919" cy="443.525" r="9.946"/>
	<circle  cx="83.072" cy="443.525" r="9.946"/>
	<circle  cx="116.224" cy="443.525" r="8.288"/>
	<circle  cx="-16.384" cy="443.525" r="9.946"/>
	<circle  cx="-49.537" cy="443.525" r="9.946"/>
	<circle  cx="-32.96" cy="471.605" r="11.603"/>
	<circle  cx="99.648" cy="414.703" r="8.288"/>
	<circle  cx="66.496" cy="414.703" r="8.288"/>
	<circle  cx="33.344" cy="414.703" r="8.288"/>
	<circle  cx="0.191" cy="414.703" r="8.288"/>
	<circle  cx="-32.961" cy="414.703" r="8.288"/>
	<circle  cx="99.648" cy="699.712" r="8.288"/>
	<circle  cx="66.496" cy="699.712" r="8.288"/>
	<circle  cx="33.344" cy="699.712" r="8.288"/>
	<circle  cx="0.191" cy="699.712" r="8.288"/>
	<circle  cx="-32.961" cy="699.712" r="8.288"/>
	<circle  cx="-32.96" cy="642.066" r="11.603"/>
	<circle  cx="-115.841" cy="556.713" r="9.946"/>
	<circle  cx="-99.265" cy="528.014" r="9.946"/>
	<circle  cx="-99.265" cy="585.411" r="9.946"/>
	<circle  cx="-82.689" cy="499.81" r="9.946"/>
	<circle  cx="-82.689" cy="614.11" r="9.946"/>
	<circle  cx="-66.113" cy="471.605" r="9.946"/>
	<circle  cx="-66.113" cy="642.066" r="9.946"/>
	<circle  cx="-82.688" cy="670.642" r="8.288"/>
	<circle  cx="-82.688" cy="443.525" r="8.288"/>
	<circle  cx="-66.113" cy="414.703" r="8.288"/>
	<circle  cx="-66.113" cy="699.712" r="8.288"/>
	<circle  cx="-148.993" cy="556.713" r="8.288"/>
	<circle  cx="-132.417" cy="528.014" r="8.288"/>
	<circle  cx="-132.417" cy="585.411" r="8.288"/>
	<circle  cx="-115.841" cy="499.81" r="8.288"/>
	<circle  cx="-115.841" cy="614.11" r="8.288"/>
	<circle  cx="-99.265" cy="471.605" r="8.288"/>
	<circle  cx="-99.265" cy="642.066" r="8.288"/>
</g>
</svg>
