<?xml version="1.0" encoding="utf-8"?>
<!-- Generator: Adobe Illustrator 16.0.0, SVG Export Plug-In . SVG Version: 6.00 Build 0)  -->
<!DOCTYPE svg PUBLIC "-//W3C//DTD SVG 1.1//EN" "http://www.w3.org/Graphics/SVG/1.1/DTD/svg11.dtd">
<svg version="1.1" id="Layer_1" xmlns="http://www.w3.org/2000/svg" xmlns:xlink="http://www.w3.org/1999/xlink" x="0px" y="0px"
	 width="442px" height="500px" viewBox="0 0 442 500" enable-background="new 0 0 442 500" xml:space="preserve">
<g>
	<path opacity="0.2"  d="M-108.765,187.431c2.039,4.086,2.041,10.714,0,14.801c-2.042,4.086-5.352,4.085-7.391,0
		c-2.042-4.087-2.042-10.713,0-14.801C-114.115,183.342-110.806,183.342-108.765,187.431z"/>
	<path opacity="0.2"  d="M-90.29,224.432c2.042,4.088,2.041,10.713,0,14.8c-2.04,4.087-5.348,4.087-7.391-0.001
		c-2.04-4.086-2.04-10.712,0-14.799C-95.638,220.345-92.33,220.345-90.29,224.432z"/>
	<path opacity="0.2"  d="M-71.813,261.432c2.041,4.088,2.041,10.714,0,14.802c-2.041,4.086-5.349,4.086-7.391,0
		c-2.041-4.088-2.041-10.714,0-14.801C-77.162,257.346-73.854,257.346-71.813,261.432z"/>
	<path opacity="0.2"  d="M-53.336,298.432c2.042,4.089,2.042,10.716,0,14.802c-2.041,4.088-5.349,4.088-7.39,0
		c-2.042-4.086-2.042-10.713,0-14.801C-58.685,294.346-55.377,294.346-53.336,298.432z"/>
	<path opacity="0.2"  d="M-34.859,335.436c2.04,4.087,2.04,10.713,0,14.799c-2.042,4.088-5.35,4.088-7.391,0
		c-2.041-4.086-2.042-10.714,0-14.8C-40.209,331.347-36.901,331.348-34.859,335.436z"/>
	<path opacity="0.2"  d="M-91.212,152.279c1.531,3.065,1.531,8.035-0.001,11.1c-1.53,3.065-4.012,3.065-5.542,0
		c-1.531-3.065-1.53-8.035,0-11.1C-95.224,149.212-92.743,149.213-91.212,152.279z"/>
	<path opacity="0.2"  d="M-72.736,189.279c1.531,3.066,1.531,8.035,0,11.102c-1.53,3.065-4.013,3.065-5.543-0.002
		c-1.529-3.063-1.529-8.033,0-11.098C-76.748,186.214-74.267,186.214-72.736,189.279z"/>
	<path opacity="0.2"  d="M-54.259,226.281c1.529,3.064,1.531,8.033,0,11.101c-1.53,3.064-4.013,3.063-5.543-0.001
		c-1.531-3.065-1.531-8.036,0-11.1C-58.272,223.214-55.79,223.216-54.259,226.281z"/>
	<path opacity="0.2"  d="M-35.783,263.281c1.532,3.066,1.53,8.033,0,11.1c-1.531,3.065-4.011,3.067-5.543,0.002
		c-1.53-3.065-1.528-8.035,0.001-11.1C-39.794,260.218-37.314,260.219-35.783,263.281z"/>
	<path opacity="0.2"  d="M-17.307,300.284c1.531,3.063,1.531,8.034,0,11.1c-1.53,3.064-4.013,3.063-5.543-0.001
		c-1.53-3.063-1.53-8.035,0-11.1C-21.318,297.216-18.837,297.218-17.307,300.284z"/>
	<path opacity="0.2"  d="M-72.735,115.277c1.53,3.065,1.53,8.036,0,11.101c-1.531,3.066-4.013,3.067-5.543,0.002
		c-1.531-3.066-1.529-8.038,0-11.103C-76.749,112.213-74.266,112.212-72.735,115.277z"/>
	<path opacity="0.2"  d="M-55.183,154.129c1.021,2.045,1.019,5.357,0,7.399c-1.021,2.043-2.675,2.045-3.697,0.001
		c-1.021-2.043-1.019-5.358,0-7.4C-57.859,152.086-56.205,152.083-55.183,154.129z"/>
	<path opacity="0.2"  d="M-36.708,191.128c1.022,2.046,1.021,5.36,0,7.401c-1.02,2.042-2.674,2.044-3.694,0
		c-1.021-2.042-1.02-5.356,0-7.402C-39.382,189.088-37.728,189.086-36.708,191.128z"/>
	<path opacity="0.2"  d="M-18.231,228.132c1.021,2.043,1.021,5.356,0,7.4c-1.021,2.042-2.675,2.043-3.695,0
		c-1.022-2.044-1.02-5.358,0-7.4C-20.906,226.089-19.252,226.086-18.231,228.132z"/>
	<path opacity="0.2"  d="M0.246,265.132c1.02,2.043,1.02,5.359,0,7.399c-1.02,2.043-2.676,2.043-3.696,0
		c-1.02-2.04-1.019-5.356,0-7.399C-2.43,263.091-0.775,263.089,0.246,265.132z"/>
	<path opacity="0.2"  d="M-54.259,78.279c1.529,3.064,1.529,8.034,0,11.099c-1.532,3.066-4.013,3.066-5.543,0.001
		c-1.531-3.066-1.531-8.035,0-11.102C-58.272,75.213-55.791,75.212-54.259,78.279z"/>
	<path opacity="0.2"  d="M-36.708,117.128c1.022,2.043,1.021,5.356,0,7.399c-1.021,2.044-2.674,2.044-3.694,0
		c-1.021-2.044-1.021-5.356,0-7.399C-39.382,115.084-37.729,115.084-36.708,117.128z"/>
	<path opacity="0.2"  d="M-19.155,155.979c0.51,1.022,0.51,2.68,0.001,3.7c-0.511,1.022-1.338,1.022-1.849,0
		c-0.51-1.021-0.51-2.678,0-3.7C-20.491,154.958-19.665,154.96-19.155,155.979z"/>
	<path opacity="0.2"  d="M-0.679,192.98c0.51,1.024,0.51,2.679,0.001,3.701c-0.511,1.021-1.338,1.021-1.849,0
		c-0.509-1.023-0.509-2.681,0-3.701C-2.015,191.957-1.188,191.958-0.679,192.98z"/>
	<path opacity="0.2"  d="M17.797,229.982c0.51,1.021,0.51,2.675,0,3.7c-0.51,1.019-1.337,1.021-1.847,0
		c-0.511-1.022-0.511-2.681,0-3.702C16.46,228.959,17.287,228.961,17.797,229.982z"/>
	<path opacity="0.2"  d="M-16.383,372.437c2.04,4.085,2.04,10.714,0,14.8c-2.042,4.087-5.35,4.087-7.39,0
		c-2.042-4.088-2.042-10.712,0-14.8C-21.733,368.349-18.425,368.348-16.383,372.437z"/>
	<path opacity="0.2"  d="M1.169,337.284c1.531,3.065,1.531,8.034,0,11.1c-1.531,3.064-4.011,3.064-5.542,0
		s-1.53-8.034,0-11.101C-2.842,334.22-0.362,334.22,1.169,337.284z"/>
	<path opacity="0.2"  d="M2.092,409.436c2.042,4.089,2.042,10.716,0,14.804c-2.042,4.085-5.349,4.085-7.391-0.003
		c-2.04-4.085-2.041-10.714,0-14.801C-3.258,405.348,0.053,405.352,2.092,409.436z"/>
	<path opacity="0.2"  d="M19.645,374.284c1.532,3.067,1.532,8.034,0,11.102c-1.53,3.064-4.011,3.064-5.542-0.001
		c-1.53-3.066-1.53-8.035,0-11.099C15.634,371.22,18.115,371.22,19.645,374.284z"/>
	<path opacity="0.2"  d="M18.722,302.134c1.021,2.044,1.021,5.358,0,7.4c-1.02,2.042-2.675,2.042-3.695,0.002
		c-1.02-2.046-1.02-5.358,0-7.402C16.047,300.092,17.701,300.088,18.722,302.134z"/>
	<path opacity="0.2"  d="M36.275,266.983c0.508,1.021,0.508,2.677,0,3.699c-0.511,1.021-1.337,1.024-1.848,0
		c-0.51-1.021-0.51-2.681,0-3.7C34.938,265.96,35.764,265.962,36.275,266.983z"/>
	<path opacity="0.2"  d="M-35.783,41.278c1.53,3.064,1.53,8.033,0,11.098c-1.531,3.065-4.013,3.066-5.542,0.002
		c-1.532-3.067-1.53-8.037,0-11.101C-39.796,38.211-37.314,38.211-35.783,41.278z"/>
	<path opacity="0.2"  d="M-18.231,80.126c1.021,2.045,1.021,5.357,0,7.4c-1.021,2.044-2.674,2.044-3.695,0.001
		c-1.022-2.044-1.022-5.356,0-7.401C-20.906,78.083-19.252,78.083-18.231,80.126z"/>
	<path opacity="0.2"  d="M-0.679,118.979c0.51,1.021,0.51,2.68,0.001,3.699c-0.511,1.023-1.338,1.022-1.849,0
		c-0.509-1.02-0.509-2.677,0.001-3.699C-2.015,117.958-1.188,117.958-0.679,118.979z"/>
	<path opacity="0.2"  d="M17.336,156.904c0.254,0.511,0.254,1.339,0,1.851c-0.255,0.51-0.669,0.51-0.924,0
		c-0.255-0.512-0.255-1.341,0-1.852C16.667,156.393,17.082,156.393,17.336,156.904z"/>
	<path opacity="0.2"  d="M35.813,193.905c0.255,0.51,0.255,1.339,0,1.851c-0.254,0.511-0.67,0.511-0.925,0
		c-0.256-0.511-0.256-1.34,0-1.851C35.144,193.393,35.559,193.393,35.813,193.905z"/>
	<path opacity="0.2"  d="M-17.307,4.276c1.531,3.065,1.531,8.034,0,11.099c-1.531,3.065-4.011,3.065-5.542,0.001
		c-1.531-3.065-1.531-8.034,0-11.101C-21.318,1.21-18.838,1.21-17.307,4.276z"/>
	<path opacity="0.2"  d="M0.246,43.126c1.021,2.044,1.02,5.356,0,7.399c-1.021,2.045-2.675,2.046-3.696,0.002
		c-1.022-2.044-1.02-5.358,0-7.401C-2.43,41.082-0.775,41.082,0.246,43.126z"/>
	<path opacity="0.2"  d="M17.798,81.977c0.509,1.022,0.509,2.679,0,3.7c-0.511,1.022-1.338,1.022-1.849,0
		c-0.509-1.021-0.509-2.678,0-3.7C16.46,80.958,17.288,80.955,17.798,81.977z"/>
	<path opacity="0.2"  d="M35.813,119.904c0.253,0.511,0.253,1.34,0,1.848c-0.254,0.511-0.669,0.511-0.925,0
		c-0.256-0.51-0.256-1.337,0-1.85C35.144,119.392,35.557,119.392,35.813,119.904z"/>
	<path opacity="0.2"  d="M1.169-32.724c1.531,3.063,1.531,8.033,0,11.099c-1.531,3.064-4.011,3.064-5.542,0
		c-1.53-3.066-1.53-8.036,0-11.099C-2.842-35.792-0.362-35.792,1.169-32.724z"/>
	<path opacity="0.2"  d="M18.722,6.125c1.021,2.044,1.021,5.355,0,7.4c-1.021,2.041-2.675,2.043-3.696,0
		c-1.021-2.044-1.02-5.358,0-7.401C16.047,4.081,17.701,4.083,18.722,6.125z"/>
	<path opacity="0.2"  d="M36.274,44.976c0.509,1.022,0.509,2.68,0,3.701c-0.509,1.021-1.337,1.021-1.848,0
		c-0.509-1.021-0.509-2.679,0-3.699C34.938,43.956,35.764,43.956,36.274,44.976z"/>
	<path opacity="0.2"  d="M19.646-69.726c1.531,3.064,1.531,8.032-0.001,11.099c-1.53,3.065-4.011,3.065-5.542,0
		c-1.531-3.066-1.531-8.035-0.001-11.099C15.634-72.792,18.115-72.792,19.646-69.726z"/>
	<path opacity="0.2"  d="M549.088,286.443c-2.043-4.087-2.043-10.711,0-14.796c2.038-4.089,5.348-4.092,7.391,0
		c2.039,4.084,2.041,10.71,0,14.798C554.436,290.533,551.126,290.529,549.088,286.443z"/>
	<path opacity="0.2"  d="M530.611,249.442c-2.043-4.084-2.043-10.712,0-14.801c2.038-4.085,5.348-4.084,7.389,0
		c2.043,4.09,2.043,10.717,0.003,14.805C535.961,253.533,532.652,253.531,530.611,249.442z"/>
	<path opacity="0.2"  d="M512.136,212.443c-2.042-4.088-2.042-10.712,0-14.8c2.038-4.086,5.348-4.088,7.389,0
		c2.041,4.089,2.041,10.713,0,14.801S514.175,216.532,512.136,212.443z"/>
	<path opacity="0.2"  d="M493.659,175.443c-2.043-4.088-2.042-10.712,0-14.8c2.038-4.086,5.347-4.088,7.39,0
		c2.038,4.086,2.041,10.714,0,14.802C499.006,179.53,495.697,179.529,493.659,175.443z"/>
	<path opacity="0.2"  d="M475.184,138.44c-2.044-4.085-2.044-10.712,0-14.799c2.038-4.087,5.348-4.086,7.389,0
		c2.041,4.089,2.039,10.713-0.001,14.799C480.531,142.527,477.223,142.528,475.184,138.44z"/>
	<path opacity="0.2"  d="M456.707,101.442c-2.044-4.09-2.043-10.714,0-14.801c2.038-4.087,5.346-4.09,7.389,0
		c2.039,4.085,2.041,10.712,0,14.801C462.055,105.527,458.743,105.527,456.707,101.442z"/>
	<path opacity="0.2"  d="M530.611,323.446c-2.043-4.087-2.043-10.713,0-14.8c2.039-4.086,5.348-4.088,7.389,0
		c2.039,4.087,2.041,10.714,0.002,14.8C535.959,327.534,532.649,327.533,530.611,323.446z"/>
	<path opacity="0.2"  d="M513.058,284.596c-1.531-3.064-1.533-8.034,0-11.103c1.528-3.062,4.011-3.06,5.542,0.002
		c1.53,3.066,1.531,8.036,0.001,11.102C517.068,287.664,514.586,287.66,513.058,284.596z"/>
	<path opacity="0.2"  d="M494.581,247.593c-1.531-3.065-1.53-8.032,0-11.099c1.53-3.065,4.011-3.066,5.542,0.001
		c1.531,3.066,1.531,8.034,0,11.098C498.592,250.659,496.111,250.66,494.581,247.593z"/>
	<path opacity="0.2"  d="M476.104,210.595c-1.531-3.067-1.531-8.037,0-11.104c1.528-3.064,4.012-3.061,5.543,0.005
		c1.53,3.063,1.531,8.033,0.001,11.098C480.116,213.66,477.633,213.657,476.104,210.595z"/>
	<path opacity="0.2"  d="M457.628,173.592c-1.532-3.067-1.53-8.033,0.001-11.099c1.527-3.065,4.01-3.067,5.542,0
		c1.531,3.066,1.531,8.033,0,11.098C461.639,176.658,459.156,176.658,457.628,173.592z"/>
	<path opacity="0.2"  d="M439.152,136.593c-1.532-3.067-1.532-8.037-0.001-11.104c1.53-3.063,4.012-3.063,5.544,0.003
		c1.529,3.064,1.53,8.035,0,11.1C443.163,139.658,440.682,139.656,439.152,136.593z"/>
	<path opacity="0.2"  d="M512.136,360.447c-2.042-4.086-2.042-10.712,0-14.801c2.038-4.086,5.348-4.087,7.389,0
		c2.041,4.089,2.041,10.716,0,14.802C517.483,364.535,514.174,364.534,512.136,360.447z"/>
	<path opacity="0.2"  d="M494.579,321.596c-1.528-3.063-1.528-8.034,0.002-11.099c1.53-3.063,4.012-3.063,5.542-0.002
		c1.531,3.066,1.531,8.038,0.001,11.104C498.593,324.663,496.111,324.663,494.579,321.596z"/>
	<path opacity="0.2"  d="M477.028,282.745c-1.021-2.044-1.02-5.355,0.001-7.398c1.021-2.04,2.673-2.043,3.695-0.001
		c1.019,2.044,1.019,5.357,0,7.4C479.705,284.788,478.05,284.788,477.028,282.745z"/>
	<path opacity="0.2"  d="M458.553,245.747c-1.021-2.045-1.021-5.358-0.003-7.404c1.021-2.042,2.678-2.042,3.698,0.004
		c1.02,2.041,1.02,5.354-0.001,7.397C461.228,247.787,459.571,247.787,458.553,245.747z"/>
	<path opacity="0.2"  d="M440.076,208.742c-1.021-2.043-1.02-5.354,0-7.397c1.019-2.043,2.675-2.044,3.693-0.002
		c1.021,2.045,1.021,5.358,0,7.401C442.751,210.787,441.096,210.787,440.076,208.742z"/>
	<path opacity="0.2"  d="M421.601,171.743c-1.021-2.043-1.021-5.359-0.004-7.401c1.022-2.043,2.678-2.042,3.698,0.001
		c1.019,2.041,1.019,5.356-0.002,7.398C424.274,173.785,422.619,173.785,421.601,171.743z"/>
	<path opacity="0.2"  d="M493.657,397.449c-2.042-4.09-2.041-10.713,0.002-14.8c2.038-4.089,5.347-4.089,7.389,0
		c2.039,4.085,2.039,10.714,0,14.8C499.006,401.535,495.697,401.535,493.657,397.449z"/>
	<path opacity="0.2"  d="M476.104,358.596c-1.53-3.062-1.531-8.033,0-11.1c1.532-3.065,4.012-3.065,5.543-0.002
		c1.531,3.068,1.531,8.04,0.001,11.104C480.117,361.663,477.637,361.663,476.104,358.596z"/>
	<path opacity="0.2"  d="M458.55,319.746c-1.018-2.042-1.017-5.355,0.003-7.399c1.02-2.042,2.674-2.044,3.694-0.001
		c1.022,2.045,1.022,5.358,0.001,7.401C461.228,321.792,459.571,321.793,458.55,319.746z"/>
	<path opacity="0.2"  d="M441,280.896c-0.511-1.022-0.511-2.679,0-3.701c0.51-1.021,1.338-1.021,1.851,0
		c0.506,1.02,0.505,2.677-0.005,3.699C442.335,281.916,441.508,281.915,441,280.896z"/>
	<path opacity="0.2"  d="M422.523,243.894c-0.511-1.021-0.513-2.677,0-3.701c0.51-1.021,1.336-1.021,1.848,0
		c0.509,1.022,0.509,2.68,0,3.702C423.859,244.917,423.033,244.917,422.523,243.894z"/>
	<path opacity="0.2"  d="M404.045,206.894c-0.509-1.022-0.509-2.678,0-3.7c0.512-1.022,1.34-1.022,1.85,0
		c0.51,1.022,0.51,2.678,0,3.701C405.385,207.918,404.557,207.917,404.045,206.894z"/>
	<path opacity="0.2"  d="M438.228,64.438c-2.04-4.084-2.041-10.713,0-14.8c2.042-4.086,5.352-4.085,7.392,0
		c2.042,4.088,2.039,10.712-0.002,14.8C443.578,68.524,440.27,68.526,438.228,64.438z"/>
	<path opacity="0.2"  d="M420.674,99.589c-1.528-3.063-1.53-8.033,0.001-11.099c1.53-3.064,4.012-3.063,5.542,0
		c1.532,3.065,1.533,8.036,0,11.101C424.687,102.658,422.205,102.656,420.674,99.589z"/>
	<path opacity="0.2"  d="M419.751,27.438c-2.04-4.087-2.04-10.712,0-14.798c2.042-4.087,5.35-4.089,7.39-0.001
		c2.042,4.086,2.042,10.713,0,14.8C425.101,31.525,421.79,31.523,419.751,27.438z"/>
	<path opacity="0.2"  d="M402.198,62.589c-1.531-3.066-1.531-8.032,0.002-11.099c1.528-3.065,4.011-3.066,5.54,0
		c1.532,3.063,1.532,8.033,0,11.098C406.211,65.655,403.727,65.653,402.198,62.589z"/>
	<path opacity="0.2"  d="M403.121,134.741c-1.018-2.041-1.018-5.356,0-7.398c1.021-2.044,2.678-2.043,3.695-0.001
		c1.021,2.043,1.021,5.359,0.002,7.401C405.799,136.784,404.143,136.784,403.121,134.741z"/>
	<path opacity="0.2"  d="M385.569,169.892c-0.51-1.022-0.509-2.675,0-3.697c0.512-1.023,1.338-1.025,1.848-0.005
		c0.511,1.023,0.511,2.681,0,3.702C386.907,170.915,386.08,170.914,385.569,169.892z"/>
	<path opacity="0.2"  d="M475.184,434.451c-2.044-4.09-2.044-10.715,0-14.801c2.038-4.086,5.346-4.089,7.389,0
		c2.039,4.086,2.039,10.712,0,14.801C480.531,438.537,477.222,438.536,475.184,434.451z"/>
	<path opacity="0.2"  d="M457.629,395.596c-1.531-3.063-1.531-8.032-0.001-11.097
		c1.528-3.065,4.012-3.065,5.543-0.001c1.531,3.065,1.531,8.038,0,11.103C461.64,398.666,459.156,398.662,457.629,395.596z"/>
	<path opacity="0.2"  d="M440.076,356.749c-1.021-2.045-1.02-5.356,0-7.4c1.021-2.046,2.675-2.046,3.693-0.001
		c1.021,2.045,1.023,5.357,0,7.402C442.751,358.792,441.096,358.792,440.076,356.749z"/>
	<path opacity="0.2"  d="M422.525,317.897c-0.513-1.024-0.513-2.68-0.002-3.698c0.51-1.023,1.339-1.024,1.848,0
		c0.509,1.018,0.509,2.674-0.002,3.695C423.859,318.917,423.033,318.917,422.525,317.897z"/>
	<path opacity="0.2"  d="M404.508,279.971c-0.253-0.513-0.253-1.336,0-1.85c0.257-0.511,0.669-0.513,0.924-0.001
		c0.256,0.512,0.258,1.339,0.002,1.853C405.179,280.484,404.765,280.481,404.508,279.971z"/>
	<path opacity="0.2"  d="M386.031,242.971c-0.253-0.511-0.254-1.341,0-1.854c0.256-0.509,0.671-0.508,0.926,0.002
		c0.255,0.511,0.254,1.339-0.002,1.85C386.702,243.481,386.289,243.481,386.031,242.971z"/>
	<path opacity="0.2"  d="M456.702,471.451c-2.04-4.089-2.039-10.713,0.002-14.799
		c2.041-4.089,5.349-4.091,7.392-0.004c2.041,4.087,2.041,10.714,0,14.803C462.053,475.539,458.743,475.536,456.702,471.451z"/>
	<path opacity="0.2"  d="M439.151,432.599c-1.529-3.063-1.531-8.035,0-11.1c1.53-3.064,4.013-3.063,5.541-0.001
		c1.533,3.065,1.533,8.037,0.003,11.104C443.164,435.667,440.682,435.665,439.151,432.599z"/>
	<path opacity="0.2"  d="M421.597,393.75c-1.018-2.046-1.018-5.356,0.004-7.399c1.02-2.044,2.674-2.048,3.694-0.001
		c1.021,2.041,1.021,5.354,0,7.4C424.274,395.795,422.619,395.795,421.597,393.75z"/>
	<path opacity="0.2"  d="M404.045,354.897c-0.509-1.021-0.509-2.678,0-3.699c0.512-1.023,1.34-1.021,1.85,0.001
		c0.509,1.02,0.509,2.676-0.003,3.696C405.383,355.918,404.556,355.918,404.045,354.897z"/>
	<path opacity="0.2"  d="M386.031,316.972c-0.253-0.514-0.253-1.34,0-1.85c0.258-0.512,0.671-0.512,0.924,0
		c0.256,0.51,0.257,1.342,0.002,1.854C386.703,317.481,386.289,317.48,386.031,316.972z"/>
	<path opacity="0.2"  d="M438.228,508.451c-2.041-4.087-2.041-10.711,0.002-14.802
		c2.04-4.084,5.349-4.087,7.391,0.003c2.038,4.085,2.039,10.713,0,14.798C443.579,512.538,440.27,512.538,438.228,508.451z"/>
	<path opacity="0.2"  d="M420.675,469.599c-1.528-3.062-1.531-8.032,0-11.099c1.53-3.066,4.012-3.064,5.542,0
		c1.532,3.066,1.533,8.037,0,11.101C424.687,472.668,422.205,472.664,420.675,469.599z"/>
	<path opacity="0.2"  d="M403.121,430.749c-1.019-2.043-1.018-5.355,0.003-7.399c1.02-2.043,2.675-2.044,3.694-0.001
		c1.021,2.045,1.021,5.358,0.001,7.4C405.799,432.794,404.144,432.794,403.121,430.749z"/>
	<path opacity="0.2"  d="M385.569,391.899c-0.509-1.022-0.509-2.678,0-3.702c0.511-1.019,1.338-1.019,1.849,0.003
		c0.51,1.021,0.509,2.676-0.001,3.696C386.907,392.919,386.08,392.919,385.569,391.899z"/>
	<path opacity="0.2"  d="M419.751,545.454c-2.041-4.087-2.04-10.716,0-14.802c2.042-4.087,5.35-4.088,7.39,0
		c2.042,4.086,2.042,10.715,0,14.801C425.102,549.539,421.79,549.541,419.751,545.454z"/>
	<path opacity="0.2"  d="M402.198,506.6c-1.531-3.063-1.531-8.032,0-11.1c1.529-3.065,4.013-3.062,5.541,0.001
		c1.533,3.066,1.533,8.036,0.004,11.1C406.211,509.666,403.728,509.665,402.198,506.6z"/>
</g>
</svg>
