<?xml version="1.0" encoding="utf-8"?>
<!-- Generator: Adobe Illustrator 16.0.0, SVG Export Plug-In . SVG Version: 6.00 Build 0)  -->
<!DOCTYPE svg PUBLIC "-//W3C//DTD SVG 1.1//EN" "http://www.w3.org/Graphics/SVG/1.1/DTD/svg11.dtd">
<svg version="1.1" id="Layer_1" xmlns="http://www.w3.org/2000/svg" xmlns:xlink="http://www.w3.org/1999/xlink" x="0px" y="0px"
	 width="442px" height="500px" viewBox="0 0 442 500" enable-background="new 0 0 442 500" xml:space="preserve">
<g>
	<path  d="M196.246,36.33c0,11.185-9.068,20.252-20.254,20.252s-20.253-9.067-20.253-20.252
		c0-11.188,9.067-20.255,20.253-20.255S196.246,25.142,196.246,36.33z"/>
	<circle  cx="221" cy="36.33" r="22.504"/>
	<path  d="M286.261,36.33c0,11.185-9.067,20.252-20.253,20.252s-20.254-9.067-20.254-20.252
		c0-11.188,9.068-20.255,20.254-20.255S286.261,25.142,286.261,36.33z"/>
	<circle  cx="311.015" cy="36.33" r="18.003"/>
	<circle  cx="356.023" cy="36.33" r="15.752"/>
	<circle  cx="401.03" cy="36.33" r="13.503"/>
	<circle  cx="446.038" cy="36.33" r="11.252"/>
	<circle  cx="423.534" cy="-2.633" r="11.252"/>
	<circle  cx="378.527" cy="-2.633" r="13.501"/>
	<circle  cx="333.519" cy="-2.633" r="15.752"/>
	<circle  cx="288.511" cy="-2.633" r="18.002"/>
	<circle  cx="243.503" cy="-2.633" r="20.253"/>
	<circle  cx="198.497" cy="-2.633" r="20.253"/>
	<circle  cx="423.534" cy="75.291" r="11.252"/>
	<circle  cx="378.527" cy="75.291" r="13.501"/>
	<circle  cx="333.519" cy="75.291" r="15.752"/>
	<circle  cx="288.511" cy="75.291" r="18.002"/>
	<circle  cx="243.503" cy="75.291" r="20.253"/>
	<circle  cx="198.497" cy="75.291" r="20.253"/>
	<circle  cx="221" cy="-40.923" r="18.002"/>
	<circle  cx="266.007" cy="-40.923" r="18.004"/>
	<circle  cx="311.015" cy="-40.923" r="15.752"/>
	<circle  cx="356.023" cy="-40.923" r="13.502"/>
	<circle  cx="401.03" cy="-40.923" r="11.252"/>
	<circle  cx="221" cy="114.253" r="18.002"/>
	<circle  cx="266.007" cy="114.253" r="18.004"/>
	<circle  cx="311.015" cy="114.253" r="15.752"/>
	<circle  cx="356.023" cy="114.253" r="13.502"/>
	<circle  cx="401.03" cy="114.253" r="11.252"/>
	<path  d="M389.777-79.214c0,6.215-5.038,11.254-11.251,11.254c-6.215,0-11.253-5.039-11.253-11.254
		c0-6.212,5.038-11.25,11.253-11.25C384.739-90.465,389.777-85.427,389.777-79.214z"/>
	<circle  cx="333.519" cy="-79.214" r="13.502"/>
	<circle  cx="288.511" cy="-79.214" r="15.752"/>
	<circle  cx="243.503" cy="-79.214" r="15.752"/>
	<circle  cx="378.525" cy="152.206" r="11.252"/>
	<circle  cx="333.519" cy="152.206" r="13.502"/>
	<circle  cx="288.511" cy="152.206" r="15.752"/>
	<circle  cx="243.503" cy="152.206" r="15.752"/>
	<circle  cx="130.985" cy="36.33" r="18.003"/>
	<circle  cx="153.488" cy="-2.633" r="18.003"/>
	<circle  cx="153.488" cy="75.291" r="18.003"/>
	<circle  cx="175.992" cy="-40.923" r="18.003"/>
	<circle  cx="175.992" cy="114.253" r="18.003"/>
	<circle  cx="198.496" cy="-79.214" r="15.753"/>
	<circle  cx="198.496" cy="152.206" r="15.753"/>
	<circle  cx="85.977" cy="36.33" r="15.752"/>
	<circle  cx="108.481" cy="-2.633" r="15.752"/>
	<circle  cx="108.481" cy="75.291" r="15.752"/>
	<circle  cx="130.984" cy="-40.923" r="15.753"/>
	<circle  cx="130.984" cy="114.253" r="15.753"/>
	<circle  cx="220.999" cy="191" r="13.503"/>
	<circle  cx="266.007" cy="191" r="13.502"/>
	<circle  cx="311.015" cy="191" r="13.502"/>
	<circle  cx="356.022" cy="191" r="11.251"/>
	<circle  cx="175.993" cy="191" r="13.503"/>
	<circle  cx="130.985" cy="191" r="13.502"/>
	<circle  cx="220.999" cy="-117.335" r="13.503"/>
	<circle  cx="266.007" cy="-117.335" r="13.502"/>
	<circle  cx="311.015" cy="-117.335" r="13.502"/>
	<circle  cx="356.022" cy="-117.335" r="11.251"/>
	<circle  cx="175.993" cy="-117.335" r="13.503"/>
	<circle  cx="130.985" cy="-117.335" r="13.502"/>
	<circle  cx="153.489" cy="-79.214" r="15.752"/>
	<circle  cx="333.519" cy="-156.464" r="11.251"/>
	<circle  cx="288.511" cy="-156.464" r="11.25"/>
	<circle  cx="243.504" cy="-156.464" r="11.252"/>
	<circle  cx="198.496" cy="-156.464" r="11.253"/>
	<circle  cx="153.488" cy="-156.464" r="11.252"/>
	<circle  cx="333.519" cy="230.466" r="11.251"/>
	<circle  cx="288.511" cy="230.466" r="11.25"/>
	<circle  cx="243.504" cy="230.466" r="11.252"/>
	<circle  cx="198.496" cy="230.466" r="11.253"/>
	<circle  cx="153.488" cy="230.466" r="11.252"/>
	<circle  cx="153.489" cy="152.206" r="15.752"/>
	<circle  cx="40.969" cy="36.33" r="13.502"/>
	<circle  cx="63.473" cy="-2.633" r="13.503"/>
	<circle  cx="63.473" cy="75.291" r="13.503"/>
	<circle  cx="85.977" cy="-40.923" r="13.502"/>
	<circle  cx="85.977" cy="114.253" r="13.502"/>
	<circle  cx="108.48" cy="-79.214" r="13.502"/>
	<circle  cx="108.48" cy="152.206" r="13.502"/>
	<circle  cx="85.978" cy="191" r="11.252"/>
	<circle  cx="85.978" cy="-117.335" r="11.252"/>
	<circle  cx="108.481" cy="-156.464" r="11.251"/>
	<circle  cx="108.481" cy="230.466" r="11.251"/>
	<circle  cx="-4.038" cy="36.33" r="11.252"/>
	<circle  cx="18.466" cy="-2.633" r="11.252"/>
	<circle  cx="18.466" cy="75.291" r="11.252"/>
	<circle  cx="40.97" cy="-40.923" r="11.252"/>
	<circle  cx="40.97" cy="114.253" r="11.252"/>
	<path  d="M74.726-79.214c0,6.215-5.038,11.254-11.253,11.254c-6.213,0-11.25-5.039-11.25-11.254
		c0-6.212,5.037-11.25,11.25-11.25C69.688-90.465,74.726-85.427,74.726-79.214z"/>
	<circle  cx="63.474" cy="152.206" r="11.252"/>
</g>
</svg>
