<?xml version="1.0" encoding="utf-8"?>
<!-- Generator: Adobe Illustrator 16.0.0, SVG Export Plug-In . SVG Version: 6.00 Build 0)  -->
<!DOCTYPE svg PUBLIC "-//W3C//DTD SVG 1.1//EN" "http://www.w3.org/Graphics/SVG/1.1/DTD/svg11.dtd">
<svg version="1.1" id="Layer_1" xmlns="http://www.w3.org/2000/svg" xmlns:xlink="http://www.w3.org/1999/xlink" x="0px" y="0px"
	 width="442px" height="500px" viewBox="0 0 442 500" enable-background="new 0 0 442 500" xml:space="preserve">
<circle  cx="4.435" cy="16.151" r="13.464"/>
<circle  cx="4.435" cy="49.812" r="11.781"/>
<circle  cx="4.435" cy="83.472" r="10.098"/>
<circle  cx="4.435" cy="117.133" r="8.415"/>
<circle  cx="4.435" cy="150.793" r="6.732"/>
<circle  cx="4.435" cy="184.454" r="5.049"/>
<circle  cx="4.435" cy="218.114" r="3.366"/>
<circle  cx="4.435" cy="251.775" r="1.683"/>
<circle  cx="4.435" cy="285.436" r="0.842"/>
<circle  cx="4.435" cy="319.096" r="0.842"/>
<circle  cx="38.095" cy="16.151" r="13.464"/>
<circle  cx="38.096" cy="49.812" r="11.781"/>
<circle  cx="38.096" cy="83.472" r="10.098"/>
<circle  cx="38.096" cy="117.133" r="8.415"/>
<circle  cx="38.095" cy="150.793" r="6.732"/>
<circle  cx="38.095" cy="184.454" r="5.049"/>
<circle  cx="38.095" cy="218.114" r="3.366"/>
<circle  cx="38.095" cy="251.775" r="1.683"/>
<circle  cx="38.095" cy="285.436" r="0.842"/>
<circle  cx="71.756" cy="16.151" r="13.464"/>
<circle  cx="71.756" cy="49.812" r="11.781"/>
<circle  cx="71.756" cy="83.472" r="10.098"/>
<circle  cx="71.756" cy="117.133" r="8.415"/>
<circle  cx="71.756" cy="150.793" r="6.732"/>
<circle  cx="71.756" cy="184.454" r="5.049"/>
<circle  cx="71.756" cy="218.114" r="3.366"/>
<circle  cx="71.756" cy="251.775" r="1.683"/>
<circle  cx="105.417" cy="16.151" r="13.464"/>
<circle  cx="105.417" cy="49.812" r="11.781"/>
<circle  cx="105.417" cy="83.472" r="10.098"/>
<circle  cx="105.417" cy="117.133" r="8.415"/>
<circle  cx="105.417" cy="150.793" r="6.732"/>
<circle  cx="105.417" cy="184.454" r="5.049"/>
<circle  cx="139.077" cy="16.151" r="13.464"/>
<circle  cx="139.077" cy="49.812" r="11.781"/>
<circle  cx="139.077" cy="83.472" r="10.098"/>
<circle  cx="139.077" cy="117.133" r="8.415"/>
<circle  cx="172.738" cy="16.151" r="13.464"/>
<circle  cx="172.738" cy="49.812" r="11.781"/>
</svg>
