<?xml version="1.0" encoding="utf-8"?>
<!-- Generator: Adobe Illustrator 16.0.0, SVG Export Plug-In . SVG Version: 6.00 Build 0)  -->
<!DOCTYPE svg PUBLIC "-//W3C//DTD SVG 1.1//EN" "http://www.w3.org/Graphics/SVG/1.1/DTD/svg11.dtd">
<svg version="1.1" id="Layer_1" xmlns="http://www.w3.org/2000/svg" xmlns:xlink="http://www.w3.org/1999/xlink" x="0px" y="0px"
	 width="442px" height="500px" viewBox="0 0 442 500" enable-background="new 0 0 442 500" xml:space="preserve">
<g>
	<circle  cx="125.794" cy="13.717" r="5.05"/>
	<circle  cx="173.396" cy="13.717" r="3.366"/>
	<circle  cx="149.595" cy="37.519" r="3.366"/>
	<circle  cx="221" cy="13.718" r="1.683"/>
	<circle  cx="197.198" cy="37.519" r="1.683"/>
	<circle  cx="173.397" cy="61.321" r="1.683"/>
	<circle  cx="78.191" cy="13.717" r="6.732"/>
	<circle  cx="101.992" cy="37.519" r="5.049"/>
	<circle  cx="30.587" cy="13.718" r="8.415"/>
	<circle  cx="-64.618" cy="13.717" r="11.781"/>
	<circle  cx="-17.016" cy="13.717" r="10.098"/>
	<circle  cx="6.786" cy="37.519" r="8.415"/>
	<circle  cx="54.389" cy="37.519" r="6.732"/>
	<circle  cx="78.19" cy="61.32" r="5.049"/>
	<circle  cx="125.794" cy="61.32" r="3.366"/>
	<circle  cx="149.596" cy="85.122" r="1.683"/>
	<circle  cx="268.604" cy="13.717" r="3.366"/>
	<circle  cx="244.801" cy="37.519" r="1.683"/>
	<circle  cx="221" cy="61.321" r="0.842"/>
	<circle  cx="197.198" cy="85.122" r="0.841"/>
	<circle  cx="316.206" cy="13.717" r="5.049"/>
	<circle  cx="292.404" cy="37.519" r="3.366"/>
	<circle  cx="268.603" cy="61.321" r="1.682"/>
	<circle  cx="244.801" cy="85.122" r="0.841"/>
	<circle  cx="363.81" cy="13.717" r="6.732"/>
	<circle  cx="340.008" cy="37.519" r="5.049"/>
	<circle  cx="316.207" cy="61.32" r="3.366"/>
	<circle  cx="292.404" cy="85.122" r="1.684"/>
	<circle  cx="411.412" cy="13.717" r="8.415"/>
	<circle  cx="387.611" cy="37.519" r="6.732"/>
	<circle  cx="363.81" cy="61.32" r="5.049"/>
	<circle  cx="459.016" cy="13.717" r="10.098"/>
	<circle  cx="435.214" cy="37.519" r="8.415"/>
	<circle  cx="506.619" cy="13.717" r="11.781"/>
</g>
<g>
	<circle  cx="316.207" cy="526.114" r="6.732"/>
	<circle  cx="340.008" cy="502.313" r="6.732"/>
	<circle  cx="268.604" cy="526.114" r="5.05"/>
	<circle  cx="292.405" cy="502.313" r="5.05"/>
	<circle  cx="316.207" cy="478.511" r="5.05"/>
	<circle  cx="221" cy="526.114" r="3.366"/>
	<circle  cx="244.802" cy="502.312" r="3.366"/>
	<circle  cx="268.604" cy="478.511" r="3.366"/>
	<circle  cx="292.405" cy="454.71" r="3.366"/>
	<circle  cx="173.397" cy="526.114" r="5.049"/>
	<circle  cx="197.199" cy="502.313" r="3.366"/>
	<circle  cx="221" cy="478.511" r="1.683"/>
	<circle  cx="244.802" cy="454.709" r="1.683"/>
	<circle  cx="268.603" cy="430.908" r="1.683"/>
	<circle  cx="387.611" cy="502.313" r="8.415"/>
	<circle  cx="363.809" cy="478.511" r="6.732"/>
	<circle  cx="340.008" cy="454.71" r="5.049"/>
	<circle  cx="435.215" cy="502.313" r="10.098"/>
	<circle  cx="411.413" cy="478.511" r="8.415"/>
	<circle  cx="482.817" cy="502.313" r="11.781"/>
	<circle  cx="578.023" cy="502.313" r="15.147"/>
	<circle  cx="530.42" cy="502.313" r="13.464"/>
	<circle  cx="506.619" cy="478.511" r="11.781"/>
	<circle  cx="459.016" cy="478.511" r="10.098"/>
	<circle  cx="435.214" cy="454.71" r="8.415"/>
	<circle  cx="387.611" cy="454.709" r="6.732"/>
	<circle  cx="363.81" cy="430.908" r="5.049"/>
	<circle  cx="316.206" cy="430.909" r="3.366"/>
	<circle  cx="292.404" cy="407.107" r="1.682"/>
	<circle  cx="125.794" cy="526.115" r="6.732"/>
	<circle  cx="149.595" cy="502.313" r="5.049"/>
	<circle  cx="173.396" cy="478.511" r="3.366"/>
	<circle  cx="197.199" cy="454.709" r="1.683"/>
	<circle  cx="221" cy="430.908" r="0.842"/>
	<circle  cx="244.802" cy="407.106" r="0.841"/>
	<circle  cx="101.992" cy="502.313" r="6.732"/>
	<circle  cx="125.794" cy="478.512" r="5.049"/>
	<circle  cx="149.596" cy="454.71" r="3.366"/>
	<circle  cx="173.397" cy="430.908" r="1.682"/>
	<circle  cx="197.199" cy="407.106" r="0.841"/>
	<circle  cx="54.389" cy="502.313" r="8.415"/>
	<circle  cx="78.19" cy="478.511" r="6.732"/>
	<circle  cx="101.992" cy="454.71" r="5.049"/>
	<circle  cx="125.793" cy="430.908" r="3.366"/>
	<circle  cx="149.596" cy="407.106" r="1.684"/>
	<circle  cx="6.786" cy="502.313" r="10.098"/>
	<circle  cx="30.588" cy="478.511" r="8.415"/>
	<circle  cx="54.389" cy="454.71" r="6.732"/>
	<circle  cx="78.19" cy="430.908" r="5.049"/>
	<circle  cx="-40.817" cy="502.313" r="11.781"/>
	<circle  cx="-17.016" cy="478.511" r="10.098"/>
	<circle  cx="6.786" cy="454.71" r="8.415"/>
	<circle  cx="-88.42" cy="502.313" r="13.464"/>
	<circle  cx="-64.619" cy="478.511" r="11.781"/>
	<circle  cx="-136.023" cy="502.313" r="15.147"/>
</g>
</svg>
