<svg version="1.1" xmlns="http://www.w3.org/2000/svg" xmlns:xlink="http://www.w3.org/1999/xlink" x="0px" y="0px"
	 width="200px" height="200px" viewBox="0 0 200 200" enable-background="new 0 0 200 200" xml:space="preserve">
<g>
	<circle cx="100" cy="100" r="100"/>
	<g>
		<rect x="97" y="49" fill="#eff2f4" width="5" height="20"/>
		<rect x="70" y="54" fill="#eff2f4" width="5" height="18"/>
		<rect x="45" y="64" fill="#eff2f4" width="4" height="14"/>
		<rect x="125" y="54" fill="#eff2f4" width="5" height="18"/>
		<rect x="151" y="64" fill="#eff2f4" width="4" height="14"/>
	</g>
	<path fill="#eff2f4" d="M99,38c-66.167,0-71,34-71,34v55c0,0,5.5,35,72.833,35S172,127,172,127V72C172,72,165.166,38,99,38z
		 M39,113h-4V98h4V113z M53,125h-4v-18h4V125z M74,134h-5v-22h5V134z M101,140h-5v-24h5V140z M129,134h-5v-22h5V134z M149,125h-4
		v-18h4V125z M164,113h-4V98h4V113z M100.417,105.5c-16.41,0-31.46-2.667-43.2-7.106C42.122,92.685,32.5,84.044,32.5,74.375
		c0-17.189,30.407-31.125,67.917-31.125s67.917,13.936,67.917,31.125c0,9.95-10.188,18.809-26.043,24.506
		C130.753,103.027,116.215,105.5,100.417,105.5z"/>
	<path fill="none" stroke="#eff2f4" stroke-width="6" stroke-miterlimit="10" d="M149.392,99.984c0,0-17.995-7.984-48.861-7.984H100
		c-30.865,0-46.559,8.777-46.559,8.777"/>
	<path fill="none" stroke="#eff2f4" stroke-miterlimit="10" d="M142.392,99.234"/>
	<path fill="none" stroke="#eff2f4" stroke-miterlimit="10" d="M58.441,99.153"/>
</g>
</svg>
