<svg version="1.1" id="Layer_1" xmlns="http://www.w3.org/2000/svg" xmlns:xlink="http://www.w3.org/1999/xlink" x="0px" y="0px"
	 width="200px" height="200px" viewBox="0 0 200 200" enable-background="new 0 0 200 200" xml:space="preserve">
<g>
	<circle cx="100" cy="100" r="100"/>
	<path fill="#eff2f4" d="M143,158.5c0-1.934-1.567-3.5-3.5-3.5h-78c-1.933,0-3.5,1.566-3.5,3.5l0,0c0,1.933,1.567,3.5,3.5,3.5h78
		C141.433,162,143,160.433,143,158.5L143,158.5z"/>
	<rect x="94" y="139" fill="#eff2f4" width="12" height="16"/>
	<path fill="#eff2f4" d="M168,47H32c-2.209,0-4,1.791-4,4v87c0,2.209,1.791,4,4,4h136c2.209,0,4-1.791,4-4V51
		C172,48.791,170.209,47,168,47z M162,127c0,2.209-1.791,4-4,4H42c-2.209,0-4-1.791-4-4V62c0-2.209,1.791-4,4-4h116
		c2.209,0,4,1.791,4,4V127z"/>
	<g>
		<path fill="#eff2f4" d="M81.603,102.309c-3.119,1.519-6.597,3.463-10.18,5.745c-3.811,2.426-7.234,4.907-10.024,7.207l1,1.573
			l7.817-4.244l-7.225,5.173l1.6,2.513l14.976-9.342l-14.023,10.031l0.578,0.911c2.767-1.239,6.779-3.492,10.589-5.918
			c3.584-2.282,6.727-4.554,9.422-6.736L81.603,102.309z"/>
		<path fill="#eff2f4" d="M90.285,106.633c5.361-2.87,11.516-6.471,17.963-10.576c18.557-11.816,32.422-23.248,30.967-25.532
			c-1.457-2.286-17.68,5.44-36.236,17.255c-6.447,4.105-12.314,8.159-17.182,11.804L90.285,106.633z"/>
	</g>
</g>
</svg>
