<svg version="1.1" id="Layer_1" xmlns="http://www.w3.org/2000/svg" xmlns:xlink="http://www.w3.org/1999/xlink" x="0px" y="0px"
	 width="200px" height="200px" viewBox="0 0 200 200" enable-background="new 0 0 200 200" xml:space="preserve">
<g>
	<circle cx="100" cy="100" r="100"/>
	<g>
		<circle fill="#eff2f4" cx="100.115" cy="99.952" r="4.788"/>
		<path fill="#eff2f4" d="M143.726,56.112c-24.149-24.149-63.302-24.149-87.451,0s-24.149,63.302,0,87.452
			c12.58,12.58,29.231,18.591,45.712,18.064c-6.174-3.243-10.236-8.702-10.236-14.878c0-9.925,10.486-18,23.375-18
			c2.934,0,5.789,0.408,8.459,1.198c0.015-4.952,0.03-12.76,0.044-19.958c0.013-6.208,0.024-12.4,0.037-17.04
			c0.006-2.322,0.012-4.123,0.018-5.476c0.011-2.367,0.025-5.474,3.519-5.474h0.912l0.796,0.312
			c1.608,0.899,3.047,1.875,4.297,3.047c2.433-0.115,6.407,0.436,10.357,4.411c4.692,4.723,11.869,17.253,11.896,19.454
			l-0.248,0.212c0.01,1.052-0.212,3.894-0.212,7.731v3.483l-2.983,0.35c-0.005,0-0.011,0-0.017,0c-0.81,0-2.287-0.445-3.222-2.275
			c-3.635-7.131-7.492-13.147-10.319-15.955c-1.096-1.088-2.107-1.692-2.958-1.966c0.005,13.392,0.036,32.377,0.061,37.159
			c1.931,2.675,2.938,5.681,2.938,8.799c0,0.515-0.035,1.023-0.09,1.527c1.837-1.46,3.616-3.025,5.315-4.725
			C167.875,119.414,167.875,80.261,143.726,56.112z M49.287,76.437c0,0,0.911-6.373,10.925-16.387
			c10.013-10.013,16.387-10.925,16.387-10.925l8.667,28.908c0,0-1.65,0.236-4.243,2.829c-2.593,2.592-2.829,4.243-2.829,4.243
			L49.287,76.437z M115.583,115.421c-8.543,8.542-22.393,8.542-30.936,0c-8.542-8.543-8.542-22.394,0-30.937
			c8.543-8.542,22.393-8.542,30.936,0C124.125,93.027,124.125,106.878,115.583,115.421z"/>
		<path fill="#eff2f4" d="M140.926,100.203c5.33,5.295,11.074,17.001,11.074,16.964c0-4.117-0.032-7.093-0.04-7.917
			c-0.001-0.08-5.603-11.736-10.879-17.047c-4.698-4.729-9.14-3.184-9.14-3.185c-1.262-1.458-2.87-2.74-4.74-3.786
			c-0.049-0.027-0.098,49.945-0.147,49.918c-3.323-1.821-7.452-2.9-11.929-2.9c-10.977,0-19.875,6.492-19.875,14.5
			s8.898,14.5,19.875,14.5S135,154.758,135,146.75c0-2.783-1.061-5.384-2.927-7.594c-0.029-0.034-0.073-27.528-0.073-41.782
			C132,97.342,136.309,95.618,140.926,100.203z"/>
	</g>
</g>
</svg>
