<svg version="1.1" id="Layer_1" xmlns="http://www.w3.org/2000/svg" xmlns:xlink="http://www.w3.org/1999/xlink" x="0px" y="0px"
	 width="200px" height="200px" viewBox="0 0 200 200" enable-background="new 0 0 200 200" xml:space="preserve">
<g>
	<circle cx="100" cy="100" r="100"/>
	<g>
		<path fill="#eff2f4" d="M71.291,141.881c-17.64,0-26.317,6.924-26.402,6.995l-2.965,2.485L42,147.405V62h-2v93h55.946
			C93.897,152,86.177,141.881,71.291,141.881z"/>
		<path fill="#eff2f4" d="M158,62v85.405l0.078,3.938l-3.123-2.502c-0.086-0.071-8.684-6.961-26.324-6.961
			c-14.887,0-22.528,10.119-24.576,13.119H160V62H158z"/>
		<path fill="#eff2f4" d="M126.795,136.966c18.643,0,27.205,7.457,27.205,7.457V51.957c0,0-8.004-7.457-27.205-7.457
			C113.992,44.5,107,51.126,103,55.545v92.613C107,143.741,114.227,136.966,126.795,136.966z M130.738,59.377
			c10.207,0,16.028,4.754,16.271,4.957l-2.844,3.411c-0.047-0.039-4.812-3.926-13.428-3.926c-8.97,0-19.752,4.241-19.859,4.284
			l-1.642-4.127C109.71,63.789,120.906,59.377,130.738,59.377z M130.738,73.589c10.207,0,16.028,4.753,16.271,4.956l-2.844,3.412
			c-0.047-0.039-4.812-3.926-13.428-3.926c-8.97,0-19.752,4.241-19.859,4.284l-1.642-4.126C109.71,78,120.906,73.589,130.738,73.589
			z M130.738,90.466c10.207,0,16.028,4.753,16.271,4.956l-2.844,3.412c-0.047-0.04-4.812-3.927-13.428-3.927
			c-8.97,0-19.752,4.242-19.859,4.285l-1.642-4.127C109.71,94.876,120.906,90.466,130.738,90.466z M130.738,104.678
			c10.207,0,16.028,4.753,16.271,4.956l-2.844,3.41c-0.047-0.038-4.812-3.926-13.428-3.926c-8.97,0-19.752,4.242-19.859,4.285
			l-1.642-4.127C109.71,109.088,120.906,104.678,130.738,104.678z"/>
		<path fill="#eff2f4" d="M73.205,44.5C54.004,44.5,46,51.957,46,51.957v92.466c0,0,8.563-7.457,27.205-7.457
			c12.568,0,19.795,6.775,23.795,11.192V55.545C93,51.126,86.007,44.5,73.205,44.5z M87.632,113.403
			c-0.107-0.043-10.89-4.285-19.859-4.285c-8.617,0-13.381,3.888-13.428,3.926l-2.843-3.41c0.243-0.203,6.064-4.956,16.271-4.956
			c9.832,0,21.029,4.41,21.501,4.599L87.632,113.403z M87.632,99.191c-0.107-0.043-10.89-4.285-19.859-4.285
			c-8.617,0-13.381,3.887-13.428,3.927l-2.843-3.412c0.243-0.203,6.064-4.956,16.271-4.956c9.832,0,21.029,4.411,21.501,4.599
			L87.632,99.191z M87.632,82.314c-0.107-0.042-10.89-4.284-19.859-4.284c-8.617,0-13.381,3.887-13.428,3.926l-2.843-3.412
			c0.243-0.203,6.064-4.956,16.271-4.956c9.832,0,21.029,4.411,21.501,4.599L87.632,82.314z M87.632,68.103
			c-0.107-0.043-10.89-4.284-19.859-4.284c-8.617,0-13.381,3.887-13.428,3.926l-2.843-3.411c0.243-0.203,6.064-4.957,16.271-4.957
			c9.832,0,21.029,4.411,21.501,4.599L87.632,68.103z"/>
	</g>
</g>
</svg>
